<svg xmlns="http://www.w3.org/2000/svg" style="display:none">
  <defs>
    <g id="icon-defs" fill="none" stroke="currentColor" stroke-width="1.6" stroke-linecap="round" stroke-linejoin="round"></g>
  </defs>

  <!-- === UI === -->
  <symbol id="icon-star" viewBox="0 0 24 24">
    <path d="M12 3.5l2.6 5.4 5.9.8-4.3 4.2 1 5.9-5.2-2.8-5.2 2.8 1-5.9-4.3-4.2 5.9-.8z" fill="currentColor" stroke="none"/>
  </symbol>

  <symbol id="icon-quote" viewBox="0 0 24 24" fill="none" stroke="currentColor" stroke-width="1.6" stroke-linecap="round" stroke-linejoin="round">
    <path d="M9 8c-2.2 0-4 1.8-4 4v5h5v-5H7.2C7.2 10.5 8 9.3 9 9V8zM18 8c-2.2 0-4 1.8-4 4v5h5v-5h-2.8c0-1.5.8-2.7 1.8-3V8z"/>
  </symbol>

  <symbol id="icon-chevron-down" viewBox="0 0 24 24" fill="none" stroke="currentColor" stroke-width="1.8" stroke-linecap="round" stroke-linejoin="round">
    <path d="M6 9l6 6 6-6"/>
  </symbol>

  <symbol id="icon-arrow-right" viewBox="0 0 24 24" fill="none" stroke="currentColor" stroke-width="1.8" stroke-linecap="round" stroke-linejoin="round">
    <path d="M5 12h14M13 6l6 6-6 6"/>
  </symbol>

  <symbol id="icon-download" viewBox="0 0 24 24" fill="none" stroke="currentColor" stroke-width="1.6" stroke-linecap="round" stroke-linejoin="round">
    <path d="M12 4v11m0 0l-4-4m4 4l4-4M5 18v1a2 2 0 002 2h10a2 2 0 002-2v-1"/>
  </symbol>

  <symbol id="icon-calendar" viewBox="0 0 24 24" fill="none" stroke="currentColor" stroke-width="1.6" stroke-linecap="round" stroke-linejoin="round">
    <rect x="4" y="5.5" width="16" height="15" rx="2.5"/>
    <path d="M4 10h16M8 3.5v3M16 3.5v3"/>
  </symbol>

  <symbol id="icon-clock" viewBox="0 0 24 24" fill="none" stroke="currentColor" stroke-width="1.6" stroke-linecap="round" stroke-linejoin="round">
    <circle cx="12" cy="12" r="8.3"/>
    <path d="M12 7.5V12l3 2"/>
  </symbol>

  <symbol id="icon-location" viewBox="0 0 24 24" fill="none" stroke="currentColor" stroke-width="1.6" stroke-linecap="round" stroke-linejoin="round">
    <path d="M12 21s7-6.5 7-11.8A7 7 0 105 9.2C5 14.5 12 21 12 21z"/>
    <circle cx="12" cy="9.2" r="2.4"/>
  </symbol>

  <symbol id="icon-mail" viewBox="0 0 24 24" fill="none" stroke="currentColor" stroke-width="1.6" stroke-linecap="round" stroke-linejoin="round">
    <rect x="3.5" y="5.5" width="17" height="13" rx="2.2"/>
    <path d="M4.5 6.5L12 13l7.5-6.5"/>
  </symbol>

  <symbol id="icon-phone" viewBox="0 0 24 24" fill="none" stroke="currentColor" stroke-width="1.6" stroke-linecap="round" stroke-linejoin="round">
    <path d="M6.5 3.5h3l1.5 4-2 1.5a11 11 0 005.5 5.5l1.5-2 4 1.5v3a2 2 0 01-2.2 2A16.5 16.5 0 014.5 5.7a2 2 0 012-2.2z"/>
  </symbol>

  <symbol id="icon-check" viewBox="0 0 24 24" fill="none" stroke="currentColor" stroke-width="2" stroke-linecap="round" stroke-linejoin="round">
    <path d="M5 12.5l4.5 4.5L19 7.5"/>
  </symbol>

  <symbol id="icon-lock" viewBox="0 0 24 24" fill="none" stroke="currentColor" stroke-width="1.6" stroke-linecap="round" stroke-linejoin="round">
    <rect x="5" y="11" width="14" height="9.5" rx="2"/>
    <path d="M8 11V7.5a4 4 0 018 0V11"/>
  </symbol>

  <symbol id="icon-plus" viewBox="0 0 24 24" fill="none" stroke="currentColor" stroke-width="1.8" stroke-linecap="round" stroke-linejoin="round">
    <path d="M12 5v14M5 12h14"/>
  </symbol>

  <!-- === Confianza === -->
  <symbol id="icon-badge" viewBox="0 0 24 24" fill="none" stroke="currentColor" stroke-width="1.6" stroke-linecap="round" stroke-linejoin="round">
    <circle cx="12" cy="9.5" r="6"/>
    <path d="M9 14.8L7.5 21l4.5-2.5L16.5 21l-1.5-6.2"/>
  </symbol>

  <symbol id="icon-certificate" viewBox="0 0 24 24" fill="none" stroke="currentColor" stroke-width="1.6" stroke-linecap="round" stroke-linejoin="round">
    <rect x="3.5" y="4" width="17" height="12" rx="2"/>
    <path d="M7 8h10M7 11.5h6"/>
    <path d="M9.5 16.5L9 21l3-1.6 3 1.6-.5-4.5"/>
  </symbol>

  <symbol id="icon-graduate" viewBox="0 0 24 24" fill="none" stroke="currentColor" stroke-width="1.6" stroke-linecap="round" stroke-linejoin="round">
    <path d="M2.5 9.5L12 5l9.5 4.5L12 14z"/>
    <path d="M6.5 11.5v4.7c0 1.1 2.5 2.3 5.5 2.3s5.5-1.2 5.5-2.3v-4.7"/>
    <path d="M21.5 9.5v5.5"/>
  </symbol>

  <symbol id="icon-briefcase" viewBox="0 0 24 24" fill="none" stroke="currentColor" stroke-width="1.6" stroke-linecap="round" stroke-linejoin="round">
    <rect x="3" y="8" width="18" height="11.5" rx="2"/>
    <path d="M8.5 8V6a2 2 0 012-2h3a2 2 0 012 2v2M3 13h18"/>
  </symbol>

  <symbol id="icon-mic" viewBox="0 0 24 24" fill="none" stroke="currentColor" stroke-width="1.6" stroke-linecap="round" stroke-linejoin="round">
    <rect x="9" y="3" width="6" height="11" rx="3"/>
    <path d="M5.5 11.5a6.5 6.5 0 0013 0M12 18v3M9 21h6"/>
  </symbol>

  <symbol id="icon-search" viewBox="0 0 24 24" fill="none" stroke="currentColor" stroke-width="1.6" stroke-linecap="round" stroke-linejoin="round">
    <circle cx="10.8" cy="10.8" r="6.8"/>
    <path d="M20 20l-4.3-4.3"/>
  </symbol>

  <!-- === Especialidades === -->
  <symbol id="icon-wave" viewBox="0 0 24 24" fill="none" stroke="currentColor" stroke-width="1.6" stroke-linecap="round" stroke-linejoin="round">
    <path d="M2.5 12c1.5-3 3-3 4.5 0s3 3 4.5 0 3-3 4.5 0 3 3 4.5 0"/>
  </symbol>

  <symbol id="icon-drop" viewBox="0 0 24 24" fill="none" stroke="currentColor" stroke-width="1.6" stroke-linecap="round" stroke-linejoin="round">
    <path d="M12 3.5S6 10.8 6 14.8a6 6 0 0012 0c0-4-6-11.3-6-11.3z"/>
  </symbol>

  <symbol id="icon-sparkle" viewBox="0 0 24 24" fill="none" stroke="currentColor" stroke-width="1.6" stroke-linecap="round" stroke-linejoin="round">
    <path d="M12 3v4M12 17v4M3 12h4M17 12h4M6 6l2.5 2.5M15.5 15.5L18 18M18 6l-2.5 2.5M8.5 15.5L6 18"/>
  </symbol>

  <symbol id="icon-people" viewBox="0 0 24 24" fill="none" stroke="currentColor" stroke-width="1.6" stroke-linecap="round" stroke-linejoin="round">
    <circle cx="8.5" cy="8" r="3"/>
    <circle cx="16" cy="8.5" r="2.5"/>
    <path d="M3 19.5c0-3 2.5-5 5.5-5s5.5 2 5.5 5M14.5 15c2.3.2 4 1.9 4 4.5"/>
  </symbol>

  <symbol id="icon-sun-cloud" viewBox="0 0 24 24" fill="none" stroke="currentColor" stroke-width="1.6" stroke-linecap="round" stroke-linejoin="round">
    <circle cx="7" cy="7" r="2.6"/>
    <path d="M7 2.5v1.3M7 10v1.3M2.5 7h1.3M10.7 7H12M3.8 3.8l.9.9M9.3 3.8l-.9.9"/>
    <path d="M9 20h7.5a3.5 3.5 0 000-7 5 5 0 00-9.6-1.5A4 4 0 008 19"/>
  </symbol>

  <symbol id="icon-heart" viewBox="0 0 24 24" fill="none" stroke="currentColor" stroke-width="1.6" stroke-linecap="round" stroke-linejoin="round">
    <path d="M12 20.5s-8-5-8-11.2C4 5.9 6.2 4 8.7 4c1.5 0 2.7.8 3.3 2 .6-1.2 1.8-2 3.3-2 2.5 0 4.7 1.9 4.7 5.3 0 6.2-8 11.2-8 11.2z"/>
  </symbol>

  <symbol id="icon-two-hearts" viewBox="0 0 24 24" fill="none" stroke="currentColor" stroke-width="1.5" stroke-linecap="round" stroke-linejoin="round">
    <path d="M9.5 17.5S4 14 4 9.7C4 7.4 5.6 6 7.4 6c1.1 0 2 .5 2.5 1.4"/>
    <path d="M14.5 17.5S20 14 20 9.7C20 7.4 18.4 6 16.6 6c-1.1 0-2.1.5-2.6 1.4-.5-.9-1.5-1.4-2.5-1.4-.5 0-1 .1-1.4.3"/>
  </symbol>

  <symbol id="icon-balloon" viewBox="0 0 24 24" fill="none" stroke="currentColor" stroke-width="1.6" stroke-linecap="round" stroke-linejoin="round">
    <path d="M12 15.5a6 6 0 100-12 6 6 0 000 12z"/>
    <path d="M12 15.5l-1.2 3M10.8 18.5h2.4M11.6 18.5l.6 3"/>
  </symbol>

  <symbol id="icon-compass" viewBox="0 0 24 24" fill="none" stroke="currentColor" stroke-width="1.6" stroke-linecap="round" stroke-linejoin="round">
    <circle cx="12" cy="12" r="8.5"/>
    <path d="M15 9l-2 5-4 1.8 2-5z"/>
  </symbol>
</svg>
